<svg xmlns="http://www.w3.org/2000/svg" height="40px" viewBox="0 -960 960 960" width="40px" fill="#000"><path d="M282.17-407.5q-11.5-11.5-11.5-28.5t11.5-28.5q11.5-11.5 28.5-11.5t28.5 11.5q11.5 11.5 11.5 28.5t-11.5 28.5q-11.5 11.5-28.5 11.5t-28.5-11.5Zm171.33 0Q442-419 442-436t11.5-28.5Q465-476 482-476t28.5 11.5Q522-453 522-436t-11.5 28.5Q499-396 482-396t-28.5-11.5Zm166.67 0q-11.5-11.5-11.5-28.5t11.5-28.5q11.5-11.5 28.5-11.5t28.5 11.5q11.5 11.5 11.5 28.5t-11.5 28.5q-11.5 11.5-28.5 11.5t-28.5-11.5ZM186.67-80q-27 0-46.84-19.83Q120-119.67 120-146.67v-600q0-27 19.83-46.83 19.84-19.83 46.84-19.83h56.66V-880h70v66.67h333.34V-880h70v66.67h56.66q27 0 46.84 19.83Q840-773.67 840-746.67v600q0 27-19.83 46.84Q800.33-80 773.33-80H186.67Zm0-66.67h586.66v-420H186.67v420Zm0-486.66h586.66v-113.34H186.67v113.34Zm0 0v-113.34 113.34Z"/></svg>